<svg xmlns="http://www.w3.org/2000/svg" width="94" height="94" viewBox="0 0 94 94">
  <g transform="translate(-12008 4011)">
    <g  transform="translate(-1312 81)">
      <circle  cx="47" cy="47" r="47" transform="translate(13320 -4092)" fill="#313970"/>
    </g>
    <path d="M22.844,44.807A4.223,4.223,0,0,0,27.055,40.6H18.633A4.223,4.223,0,0,0,22.844,44.807ZM35.477,32.174V21.647c0-6.464-3.432-11.875-9.475-13.307V6.908a3.158,3.158,0,1,0-6.316,0V8.34c-6.022,1.432-9.475,6.822-9.475,13.307V32.174L6,36.385v2.105H39.688V36.385ZM31.266,34.28H14.422V21.647c0-5.222,3.179-9.475,8.422-9.475s8.422,4.253,8.422,9.475Z" transform="translate(12032 -3988.75)" fill="#fff"/>
  </g>
</svg>
