<svg xmlns="http://www.w3.org/2000/svg" width="109" height="94" viewBox="0 0 109 94">
  <g transform="translate(-13312 4092)">
    <path d="M47.579,11.937a8,8,0,0,1,13.842,0l40.614,70.05A8,8,0,0,1,95.114,94H13.886A8,8,0,0,1,6.965,81.987Z" transform="translate(13312 -4092)" fill="#b40019"/>
    <path d="M13.424,33.207a6.149,6.149,0,1,1-6.149-6.149A6.156,6.156,0,0,1,13.424,33.207ZM1.837,1.937,2.882,22.845A1.845,1.845,0,0,0,4.725,24.6h5.1a1.845,1.845,0,0,0,1.843-1.753L12.712,1.937A1.845,1.845,0,0,0,10.869,0H3.679A1.845,1.845,0,0,0,1.837,1.937Z" transform="translate(13359.226 -4053.678)" fill="#fff" stroke="#b40019" stroke-width="3"/>
  </g>
</svg>
